<svg xmlns="http://www.w3.org/2000/svg" viewBox="0 0 208.75 37.46"><defs><style>.cls-1{fill:#fff;}</style></defs><g id="图层_2" data-name="图层 2"><g id="图层_1-2" data-name="图层 1"><path class="cls-1" d="M37.43,27.32h0a3.2,3.2,0,0,1-1.25-.24,2.76,2.76,0,0,1-1-.67,2.25,2.25,0,0,1-.56-1,2.44,2.44,0,0,1,0-1.28h0L37.91,0H67.12L64.76,5.3H46.26L43.84,22.21H59.28l5.15-2.13-1,7.24Zm39.92-.43L71.9,8.35,70.55,7H80.73l2.51,10.24,4.35-9.27c.08-.16,0-.13-.11-.26h0C87.26,7.44,86,7,86.38,7h11L81.84,35.63a3.83,3.83,0,0,1-1.28,1.25,3.46,3.46,0,0,1-2,.58H70l3.71-3.72ZM104.53,7l.39-2.8L104,2.75h10.19L113.56,7h5.74l-1,4.64H113l-1.59,11.1H116l-.92,4.63H104.92a3,3,0,0,1-2.27-.91,2.36,2.36,0,0,1-.53-2.32h0L104,11.59h-3.72L100.77,7Zm20,0h20.85a2.31,2.31,0,0,1,2.1,1.14,4.68,4.68,0,0,1,.7,2.53h0l-2.32,16.7H125a2.48,2.48,0,0,1-2.1-.91,3.72,3.72,0,0,1-.7-2.32h0Zm14.38,4.64h-5.6l-1.83,11.1H137ZM153.43,7h25.49l-2.8,20.37h-9.27l2.32-15.73h-5.55L161.3,27.32H152l2.78-18.86a.33.33,0,0,0-.09-.27ZM185.1,7H206a2.29,2.29,0,0,1,2.1,1.14,4.68,4.68,0,0,1,.7,2.53h0l-2.31,16.7H185.58a2.48,2.48,0,0,1-2.1-.91,3.72,3.72,0,0,1-.7-2.32h0Zm14.38,4.64h-5.6l-1.83,11.1h5.55Z"/><rect class="cls-1" width="27.32" height="27.32" rx="2.22"/></g></g></svg>